<?xml version="1.0" encoding="UTF-8"?>
<svg id="_Ñëîé_1" data-name="Ñëîé_1" xmlns="http://www.w3.org/2000/svg" version="1.1" viewBox="0 0 691.8 343.2">
  <!-- Generator: Adobe Illustrator 29.1.0, SVG Export Plug-In . SVG Version: 2.1.0 Build 142)  -->
  <defs>
    <style>
      .st0 {
        fill: #d4dce8;
      }

      .st1 {
        fill: #4a6fae;
      }
    </style>
  </defs>
  <path class="st0" d="M148.4,307.2c0-3.2,2.6-5.7,5.7-5.7h0c3.2,0,5.7,2.6,5.7,5.7h0c0,3.2-2.6,5.7-5.7,5.7h0c-3.2,0-5.7-2.6-5.7-5.7h0ZM151.4,307.2c0,1.5,1.2,2.6,2.6,2.6h0c1.5,0,2.6-1.2,2.6-2.6h0c0-1.5-1.2-2.6-2.6-2.6h0c-1.4,0-2.6,1.1-2.6,2.6h0Z"/>
  <path class="st0" d="M242.4,281.1c0-3.2,2.6-5.7,5.7-5.7h0c3.2,0,5.7,2.6,5.7,5.7h0c0,3.2-2.6,5.7-5.7,5.7h0c-3.1,0-5.7-2.5-5.7-5.7h0ZM245.5,281.1c0,1.5,1.2,2.6,2.6,2.6h0c1.5,0,2.6-1.2,2.6-2.6h0c0-1.5-1.2-2.6-2.6-2.6h0c-1.4,0-2.6,1.1-2.6,2.6h0Z"/>
  <path class="st0" d="M158.2,308.7c-.9,0-1.5-.7-1.5-1.5h0c0-.9.7-1.5,1.5-1.5h43.4c.9,0,1.5.7,1.5,1.5h0c0,.9-.7,1.5-1.5,1.5h-43.4Z"/>
  <path class="st0" d="M201.6,282.6c-.9,0-1.5-.7-1.5-1.5h0c0-.9.7-1.5,1.5-1.5h42.4c.8,0,1.5.7,1.5,1.5h0c0,.9-.7,1.5-1.5,1.5h-42.4Z"/>
  <path class="st0" d="M200.1,307.2v-26.1c0-.9.7-1.5,1.5-1.5h0c.9,0,1.5.7,1.5,1.5h0v26.1c0,.9-.7,1.5-1.5,1.5h0c-.8,0-1.5-.7-1.5-1.5h0Z"/>
  <path class="st0" d="M174.1,303.7c-.9,0-1.5-.7-1.5-1.5h0c0-.9.7-1.5,1.5-1.5h17.5c.9,0,1.5.7,1.5,1.5h0c0,.9-.7,1.5-1.5,1.5h-17.5Z"/>
  <path class="st0" d="M213.3,287.8c-.9,0-1.5-.7-1.5-1.5h0c0-.9.7-1.5,1.5-1.5h7.9c.9,0,1.5.7,1.5,1.5h0c0,.9-.7,1.5-1.5,1.5h-7.9Z"/>
  <path class="st0" d="M226.3,287.8c-.9,0-1.5-.7-1.5-1.5h0c0-.9.7-1.5,1.5-1.5h3.8c.9,0,1.5.7,1.5,1.5h0c0,.9-.7,1.5-1.5,1.5h-3.8Z"/>
  <path class="st0" d="M93.7,88.2c0-3.2,2.6-5.7,5.7-5.7h0c3.2,0,5.7,2.6,5.7,5.7h0c0,3.2-2.6,5.7-5.7,5.7h0c-3.2,0-5.7-2.5-5.7-5.7h0ZM96.8,88.2c0,1.5,1.2,2.6,2.6,2.6h0c1.5,0,2.6-1.2,2.6-2.6h0c0-1.5-1.2-2.6-2.6-2.6h0c-1.5,0-2.6,1.2-2.6,2.6h0Z"/>
  <path class="st0" d="M163.8,123.9c0-3.2,2.6-5.7,5.7-5.7h0c3.2,0,5.7,2.6,5.7,5.7h0c0,3.2-2.6,5.7-5.7,5.7h0c-3.2,0-5.7-2.5-5.7-5.7h0ZM166.8,123.9c0,1.5,1.2,2.6,2.6,2.6h0c1.5,0,2.6-1.2,2.6-2.6h0c0-1.5-1.2-2.6-2.6-2.6h0c-1.4,0-2.5,1.2-2.6,2.6h0Z"/>
  <path class="st0" d="M97.9,107.3v-14.9c0-.9.7-1.5,1.5-1.5h0c.9,0,1.5.7,1.5,1.5h0v14.9c0,.8-.7,1.5-1.5,1.5h0c-.9,0-1.5-.7-1.5-1.5h0Z"/>
  <path class="st0" d="M99.4,108.8c-.9,0-1.5-.7-1.5-1.5h0c0-.9.7-1.5,1.5-1.5h29.6c.9,0,1.5.7,1.5,1.5h0c0,.8-.7,1.5-1.5,1.5h-29.6Z"/>
  <path class="st0" d="M127.5,123.1v-15.9c0-.9.7-1.5,1.5-1.5h0c.9,0,1.5.7,1.5,1.5h0v15.9c0,.9-.7,1.5-1.5,1.5h0c-.8,0-1.5-.6-1.5-1.5h0Z"/>
  <path class="st0" d="M129,125.5c-.9,0-1.5-.7-1.5-1.5h0c0-.9.7-1.5,1.5-1.5h36.3c.9,0,1.5.7,1.5,1.5h0c0,.9-.7,1.5-1.5,1.5h-36.3Z"/>
  <path class="st0" d="M104.2,113.6c-.9,0-1.5-.7-1.5-1.5h0c0-.9.7-1.5,1.5-1.5h13.6c.9,0,1.5.7,1.5,1.5h0c0,.9-.7,1.5-1.5,1.5h-13.6Z"/>
  <path class="st0" d="M132.1,119v-5.4c0-.9.7-1.5,1.5-1.5h0c.9,0,1.5.7,1.5,1.5h0v5.4c0,.9-.7,1.5-1.5,1.5h0c-.8,0-1.5-.7-1.5-1.5h0Z"/>
  <path class="st0" d="M511.8,35.1c0-3.2,2.6-5.7,5.7-5.7h0c3.2,0,5.7,2.6,5.7,5.7h0c0,3.2-2.6,5.7-5.7,5.7h0c-3.2.1-5.7-2.5-5.7-5.7h0ZM517.5,37.8c1.5,0,2.6-1.2,2.6-2.6h0c0-1.5-1.2-2.6-2.6-2.6h0c-1.5,0-2.6,1.2-2.6,2.6h0c0,1.4,1.1,2.6,2.6,2.6h0Z"/>
  <path class="st0" d="M443.3,82.5h0c0-3.2,2.6-5.7,5.7-5.7h0c3.2,0,5.7,2.6,5.7,5.7h0c0,3.2-2.6,5.7-5.7,5.7h0c-3.1,0-5.7-2.5-5.7-5.7h0ZM449,85.1c1.5,0,2.6-1.2,2.6-2.6h0c0-1.5-1.2-2.6-2.6-2.6h0c-1.5,0-2.6,1.2-2.6,2.6h0c0,1.5,1.2,2.6,2.6,2.6h0Z"/>
  <path class="st0" d="M447.5,78.3v-23.5c0-.9.7-1.5,1.5-1.5h0c.9,0,1.5.7,1.5,1.5h0v23.6c0,.9-.7,1.5-1.5,1.5h0c-.8,0-1.5-.7-1.5-1.6h0Z"/>
  <path class="st0" d="M449,56.3c-.9,0-1.5-.7-1.5-1.5h0c0-.9.7-1.5,1.5-1.5h15.9c.9,0,1.5.7,1.5,1.5h0c0,.9-.7,1.5-1.5,1.5h-15.9Z"/>
  <path class="st0" d="M463.4,54.8v-18.8c0-.9.7-1.5,1.5-1.5h0c.9,0,1.5.7,1.5,1.5h0v18.8c0,.9-.7,1.5-1.5,1.5h0c-.8,0-1.5-.7-1.5-1.5h0Z"/>
  <path class="st0" d="M464.9,36.7c-.9,0-1.5-.7-1.5-1.5h0c0-.9.7-1.5,1.5-1.5h48.4c.9,0,1.5.7,1.5,1.5h0c0,.9-.7,1.5-1.5,1.5h-48.4Z"/>
  <path class="st0" d="M479.1,31.3c-.9,0-1.5-.7-1.5-1.5h0c0-.9.7-1.5,1.5-1.5h15.9c.9,0,1.5.7,1.5,1.5h0c0,.9-.7,1.5-1.5,1.5h-15.9Z"/>
  <path class="st0" d="M467.6,59.6v-12.8c0-.9.7-1.5,1.5-1.5h0c.9,0,1.5.7,1.5,1.5h0v12.7c0,.9-.7,1.5-1.5,1.5h0c-.9,0-1.5-.6-1.5-1.4h0Z"/>
  <path class="st0" d="M457.8,61.1c-.9,0-1.5-.7-1.5-1.5h0c0-.9.7-1.5,1.5-1.5h11.3c.9,0,1.5.7,1.5,1.5h0c0,.9-.7,1.5-1.5,1.5h-11.3Z"/>
  <path class="st0" d="M180.1,27.2c0-3.2,2.6-5.7,5.7-5.7h0c3.2,0,5.7,2.6,5.7,5.7h0c0,3.2-2.6,5.7-5.7,5.7h0c-3.2,0-5.7-2.6-5.7-5.7h0ZM183.1,27.2c0,1.5,1.2,2.6,2.6,2.6h0c1.5,0,2.6-1.2,2.6-2.6h0c0-1.5-1.2-2.6-2.6-2.6h0c-1.4-.1-2.6,1.1-2.6,2.6h0Z"/>
  <path class="st0" d="M258.1,74c0-3.2,2.6-5.7,5.7-5.7h0c3.2,0,5.7,2.6,5.7,5.7h0c0,3.2-2.6,5.7-5.7,5.7h0c-3.1.1-5.7-2.5-5.7-5.7h0ZM261.2,74c0,1.5,1.2,2.6,2.6,2.6h0c1.5,0,2.6-1.2,2.6-2.6h0c0-1.5-1.2-2.6-2.6-2.6h0c-1.4,0-2.6,1.2-2.6,2.6h0Z"/>
  <path class="st0" d="M184.2,43v-11.7c0-.9.7-1.5,1.5-1.5h0c.9,0,1.5.7,1.5,1.5h0v11.7c0,.9-.7,1.5-1.5,1.5h0c-.8,0-1.5-.7-1.5-1.5h0Z"/>
  <path class="st0" d="M185.8,44.5c-.9,0-1.5-.7-1.5-1.5h0c0-.9.7-1.5,1.5-1.5h78.1c.9,0,1.5.7,1.5,1.5h0c0,.9-.7,1.5-1.5,1.5h-78.1Z"/>
  <path class="st0" d="M262.3,69.9v-26.9c0-.9.7-1.5,1.5-1.5h0c.9,0,1.5.7,1.5,1.5h0v26.9c0,.9-.7,1.5-1.5,1.5h0c-.8,0-1.5-.7-1.5-1.5h0Z"/>
  <path class="st0" d="M217.1,39.3c-.9,0-1.5-.7-1.5-1.5h0c0-.9.7-1.5,1.5-1.5h17.7c.9,0,1.5.7,1.5,1.5h0c0,.9-.7,1.5-1.5,1.5h-17.7Z"/>
  <path class="st0" d="M239.8,39.3c-.9,0-1.5-.7-1.5-1.5h0c0-.9.7-1.5,1.5-1.5h2.9c.9,0,1.5.7,1.5,1.5h0c0,.9-.7,1.5-1.5,1.5h-2.9Z"/>
  <path class="st0" d="M257.1,60.7v-10c0-.9.7-1.5,1.5-1.5h0c.9,0,1.5.7,1.5,1.5h0v10c0,.9-.7,1.5-1.5,1.5h0c-.8,0-1.5-.7-1.5-1.5h0Z"/>
  <path class="st0" d="M492.6,308c0-3.2,2.6-5.7,5.7-5.7h0c3.2,0,5.7,2.6,5.7,5.7h0c0,3.2-2.6,5.7-5.7,5.7h0v-3c1.5,0,2.6-1.2,2.6-2.6h0c0-1.5-1.2-2.6-2.6-2.6h0c-1.5,0-2.6,1.2-2.6,2.6h0c0,1.5,1.2,2.6,2.6,2.6h0v3c-3.1,0-5.7-2.6-5.7-5.7h0Z"/>
  <path class="st0" d="M432.6,266.2c0-3.2,2.6-5.7,5.7-5.7h0c3.2,0,5.7,2.6,5.7,5.7h0c0,3.2-2.6,5.7-5.7,5.7h0v-3c1.5,0,2.6-1.2,2.6-2.6h0c0-1.5-1.2-2.6-2.6-2.6h0c-1.5,0-2.6,1.2-2.6,2.6h0c0,1.5,1.2,2.6,2.6,2.6h0v3c-3.1,0-5.7-2.5-5.7-5.7h0Z"/>
  <path class="st0" d="M464.4,309.5c-.9,0-1.5-.7-1.5-1.5h0c0-.9.7-1.5,1.5-1.5h29.8c.9,0,1.5.7,1.5,1.5h0c0,.9-.7,1.5-1.5,1.5h-29.8Z"/>
  <path class="st0" d="M462.8,308v-20.9c0-.9.7-1.5,1.5-1.5h0c.9,0,1.5.7,1.5,1.5h0v20.9c0,.9-.7,1.5-1.5,1.5h0c-.8,0-1.5-.7-1.5-1.5h0Z"/>
  <path class="st0" d="M438.3,288.6c-.9,0-1.5-.7-1.5-1.5h0c0-.9.7-1.5,1.5-1.5h26c.9,0,1.5.7,1.5,1.5h0c0,.9-.7,1.5-1.5,1.5h-26Z"/>
  <path class="st0" d="M436.8,286.7v-16.3c0-.9.7-1.5,1.5-1.5h0c.9,0,1.5.7,1.5,1.5h0v16.3c0,.9-.7,1.5-1.5,1.5h0c-.8,0-1.5-.7-1.5-1.5h0Z"/>
  <path class="st0" d="M449.2,283.6c-.9,0-1.5-.7-1.5-1.5h0c0-.9.7-1.5,1.5-1.5h9.4c.9,0,1.5.7,1.5,1.5h0c0,.8-.7,1.5-1.5,1.5h-9.4Z"/>
  <path class="st0" d="M477.5,304.6c-.9,0-1.5-.7-1.5-1.5h0c0-.9.7-1.5,1.5-1.5h8.3c.9,0,1.5.7,1.5,1.5h0c0,.8-.7,1.5-1.5,1.5h-8.3Z"/>
  <path class="st0" d="M457.5,304.2v-8.3c0-.8.7-1.5,1.5-1.5h0c.9,0,1.5.7,1.5,1.5h0v8.3c0,.9-.7,1.5-1.5,1.5h0c-.8,0-1.5-.6-1.5-1.5h0Z"/>
  <path class="st0" d="M19,231.9c0-3.2,2.6-5.7,5.7-5.7h0c3.2,0,5.7,2.6,5.7,5.7h0c0,3.2-2.6,5.7-5.7,5.7h0c-3.1,0-5.7-2.5-5.7-5.7h0ZM22.1,231.9c0,1.5,1.2,2.6,2.6,2.6h0c1.5,0,2.6-1.2,2.6-2.6h0c0-1.5-1.2-2.6-2.6-2.6h0c-1.4,0-2.6,1.2-2.6,2.6h0Z"/>
  <path class="st0" d="M105,184.7c0-3.2,2.6-5.7,5.7-5.7h0c3.2,0,5.7,2.6,5.7,5.7h0c0,3.2-2.6,5.7-5.7,5.7h0c-3.2.1-5.7-2.5-5.7-5.7h0ZM108.1,184.7c0,1.5,1.2,2.6,2.6,2.6h0c1.5,0,2.6-1.2,2.6-2.6h0c0-1.5-1.2-2.6-2.6-2.6h0c-1.5,0-2.6,1.2-2.6,2.6h0Z"/>
  <path class="st0" d="M28.9,233.5c-.9,0-1.5-.7-1.5-1.5h0c0-.9.7-1.5,1.5-1.5h42.1c.9,0,1.5.7,1.5,1.5h0c0,.9-.7,1.5-1.5,1.5H28.9Z"/>
  <path class="st0" d="M69.5,231.9v-19.2c0-.9.7-1.5,1.5-1.5h0c.9,0,1.5.7,1.5,1.5h0v19.2c0,.9-.7,1.5-1.5,1.5h0c-.8.1-1.5-.6-1.5-1.5h0Z"/>
  <path class="st0" d="M71,214.2c-.9,0-1.5-.7-1.5-1.5h0c0-.9.7-1.5,1.5-1.5h39.6c.9,0,1.5.7,1.5,1.5h0c0,.9-.7,1.5-1.5,1.5h-39.6Z"/>
  <path class="st0" d="M109.1,212.7v-23.8c0-.9.7-1.5,1.5-1.5h0c.9,0,1.5.7,1.5,1.5h0v23.8c0,.9-.7,1.5-1.5,1.5h0c-.8,0-1.5-.6-1.5-1.5h0Z"/>
  <path class="st0" d="M113.7,208.1v-10.4c0-.9.7-1.5,1.5-1.5h0c.9,0,1.5.7,1.5,1.5h0v10.4c0,.8-.7,1.5-1.5,1.5h0c-.8,0-1.5-.6-1.5-1.5h0Z"/>
  <path class="st0" d="M88.2,219.2c-.9,0-1.5-.7-1.5-1.5h0c0-.9.7-1.5,1.5-1.5h12.9c.9,0,1.5.7,1.5,1.5h0c0,.9-.7,1.5-1.5,1.5h-12.9Z"/>
  <path class="st0" d="M41.8,228.9c-.9,0-1.5-.7-1.5-1.5h0c0-.9.7-1.5,1.5-1.5h17.1c.9,0,1.5.7,1.5,1.5h0c0,.9-.7,1.5-1.5,1.5h-17.1Z"/>
  <path class="st0" d="M609.7,177.1c0-3.2,2.6-5.7,5.7-5.7h0c3.2,0,5.7,2.6,5.7,5.7h0c0,3.2-2.6,5.7-5.7,5.7h0c-3.2,0-5.7-2.5-5.7-5.7h0ZM612.8,177.1c0,1.5,1.2,2.6,2.6,2.6h0c1.5,0,2.6-1.2,2.6-2.6h0c0-1.5-1.2-2.6-2.6-2.6h0c-1.5,0-2.6,1.1-2.6,2.6h0Z"/>
  <path class="st0" d="M517.9,133.8c0-3.2,2.6-5.7,5.7-5.7h0c3.2,0,5.7,2.6,5.7,5.7h0c0,3.2-2.6,5.7-5.7,5.7h0c-3.1,0-5.7-2.5-5.7-5.7h0ZM521,133.8c0,1.5,1.2,2.6,2.6,2.6h0c1.5,0,2.6-1.2,2.6-2.6h0c0-1.5-1.2-2.6-2.6-2.6h0c-1.4,0-2.6,1.2-2.6,2.6h0Z"/>
  <path class="st0" d="M527.8,135.4c-.9,0-1.5-.7-1.5-1.5h0c0-.9.7-1.5,1.5-1.5h43.4c.9,0,1.5.7,1.5,1.5h0c0,.9-.7,1.5-1.5,1.5h-43.4Z"/>
  <path class="st0" d="M569.7,176.8v-43c0-.9.7-1.5,1.5-1.5h0c.9,0,1.5.7,1.5,1.5h0v43c0,.9-.7,1.5-1.5,1.5h0c-.8,0-1.5-.6-1.5-1.5h0Z"/>
  <path class="st0" d="M571.2,178.6c-.9,0-1.5-.7-1.5-1.5h0c0-.9.7-1.5,1.5-1.5h40c.9,0,1.5.7,1.5,1.5h0c0,.9-.7,1.5-1.5,1.5h-40Z"/>
  <path class="st0" d="M540.8,140c-.9,0-1.5-.7-1.5-1.5h0c0-.9.7-1.5,1.5-1.5h15c.9,0,1.5.7,1.5,1.5h0c0,.9-.7,1.5-1.5,1.5h-15Z"/>
  <path class="st0" d="M574.7,155.6v-13.8c0-.9.7-1.5,1.5-1.5h0c.9,0,1.5.7,1.5,1.5h0v13.8c0,.9-.7,1.5-1.5,1.5h0c-.8,0-1.5-.7-1.5-1.5h0Z"/>
  <path class="st0" d="M574.7,165.2v-4.6c0-.9.7-1.5,1.5-1.5h0c.9,0,1.5.7,1.5,1.5h0v4.6c0,.9-.7,1.5-1.5,1.5h0c-.8,0-1.5-.7-1.5-1.5h0Z"/>
  <path class="st0" d="M587.1,183.8c-.9,0-1.5-.7-1.5-1.5h0c0-.9.7-1.5,1.5-1.5h14.2c.9,0,1.5.7,1.5,1.5h0c0,.9-.7,1.5-1.5,1.5h-14.2Z"/>
  <path class="st0" d="M52.1,132.8v-8.9c0-.9.7-1.5,1.5-1.5h0c.9,0,1.5.7,1.5,1.5h0v8.9c0,.9-.7,1.5-1.5,1.5h0c-.8,0-1.5-.6-1.5-1.5h0Z"/>
  <path class="st0" d="M49.2,129.9c-.9,0-1.5-.7-1.5-1.5h0c0-.9.7-1.5,1.5-1.5h8.9c.9,0,1.5.7,1.5,1.5h0c0,.9-.7,1.5-1.5,1.5h-8.9Z"/>
  <path class="st0" d="M250.3,341.7v-8.9c0-.9.7-1.5,1.5-1.5h0c.9,0,1.5.7,1.5,1.5h0v8.9c0,.9-.7,1.5-1.5,1.5h0c-.8,0-1.5-.7-1.5-1.5h0Z"/>
  <path class="st0" d="M247.4,338.7c-.9,0-1.5-.7-1.5-1.5h0c0-.9.7-1.5,1.5-1.5h8.9c.9,0,1.5.7,1.5,1.5h0c0,.9-.7,1.5-1.5,1.5h-8.9Z"/>
  <path class="st0" d="M559.7,56.7v-8.9c0-.9.7-1.5,1.5-1.5h0c.9,0,1.5.7,1.5,1.5h0v8.9c0,.9-.7,1.5-1.5,1.5h0c-.9,0-1.5-.6-1.5-1.5h0Z"/>
  <path class="st0" d="M556.8,53.8c-.9,0-1.5-.7-1.5-1.5h0c0-.9.7-1.5,1.5-1.5h8.9c.9,0,1.5.7,1.5,1.5h0c0,.9-.7,1.5-1.5,1.5h-8.9Z"/>
  <path class="st0" d="M684.3,223.4v-8.9c0-.9.7-1.5,1.5-1.5h0c.9,0,1.5.7,1.5,1.5h0v8.9c0,.9-.7,1.5-1.5,1.5h0c-.8.1-1.5-.6-1.5-1.5h0Z"/>
  <path class="st0" d="M681.4,220.5c-.9,0-1.5-.7-1.5-1.5h0c0-.9.7-1.5,1.5-1.5h8.9c.9,0,1.5.7,1.5,1.5h0c0,.9-.7,1.5-1.5,1.5h-8.9Z"/>
  <path class="st0" d="M393.5,201.9v-8.9c0-.9.7-1.5,1.5-1.5h0c.8,0,1.5.7,1.5,1.5h0v8.9c0,.9-.7,1.5-1.5,1.5h0c-.8,0-1.5-.7-1.5-1.5h0Z"/>
  <path class="st0" d="M390.6,199c-.9,0-1.5-.7-1.5-1.5h0c0-.9.7-1.5,1.5-1.5h8.9c.9,0,1.5.7,1.5,1.5h0c0,.9-.7,1.5-1.5,1.5h-8.9Z"/>
  <path class="st0" d="M215.3,147v-8.9c0-.9.7-1.5,1.5-1.5h0c.9,0,1.5.7,1.5,1.5h0v8.9c0,.9-.7,1.5-1.5,1.5h0c-.8,0-1.5-.7-1.5-1.5h0Z"/>
  <path class="st0" d="M212.4,144.1c-.9,0-1.5-.7-1.5-1.5h0c0-.9.7-1.5,1.5-1.5h8.9c.9,0,1.5.7,1.5,1.5h0c0,.9-.7,1.5-1.5,1.5h-8.9Z"/>
  <path class="st0" d="M272.4,13.5c-.9,0-1.5-.7-1.5-1.5h0c0-.9.7-1.5,1.5-1.5h15c.9,0,1.5.7,1.5,1.5h0c0,.9-.7,1.5-1.5,1.5h-15Z"/>
  <path class="st0" d="M264.8,19.3c-.9,0-1.5-.7-1.5-1.5h0c0-.9.7-1.5,1.5-1.5h13.4c.8,0,1.5.7,1.5,1.5h0c0,.9-.7,1.5-1.5,1.5h-13.4Z"/>
  <path class="st0" d="M29.8,309.6c-.9,0-1.5-.7-1.5-1.5h0c0-.9.7-1.5,1.5-1.5h15c.9,0,1.5.7,1.5,1.5h0c0,.9-.7,1.5-1.5,1.5h-15Z"/>
  <path class="st0" d="M22.3,315.5c-.9,0-1.5-.7-1.5-1.5h0c0-.9.7-1.5,1.5-1.5h13.4c.9,0,1.5.7,1.5,1.5h0c0,.9-.7,1.5-1.5,1.5h-13.4Z"/>
  <path class="st0" d="M567.7,325.9c-.9,0-1.5-.7-1.5-1.5h0c0-.9.7-1.5,1.5-1.5h15c.9,0,1.5.7,1.5,1.5h0c0,.9-.7,1.5-1.5,1.5h-15Z"/>
  <path class="st0" d="M560.2,331.7c-.9,0-1.5-.7-1.5-1.5h0c0-.9.7-1.5,1.5-1.5h13.3c.9,0,1.5.7,1.5,1.5h0c0,.8-.7,1.5-1.5,1.5h-13.3Z"/>
  <path class="st0" d="M387.8,50.2c-.9,0-1.5-.7-1.5-1.5h0c0-.9.7-1.5,1.5-1.5h15c.9,0,1.5.7,1.5,1.5h0c0,.9-.7,1.5-1.5,1.5h-15Z"/>
  <path class="st0" d="M380.2,56.1c-.9,0-1.5-.7-1.5-1.5h0c0-.9.7-1.5,1.5-1.5h13.3c.9,0,1.5.7,1.5,1.5h0c0,.9-.7,1.5-1.5,1.5h-13.3Z"/>
  <path class="st0" d="M588.1,249.3c-.6-.6-.6-1.6,0-2.2h0l6.2-6.2c.6-.6,1.6-.6,2.2,0h0c.6.6.6,1.6,0,2.2h0l-6.2,6.2c-.3.3-.7.5-1.1.5h0c-.4,0-.8-.2-1.1-.5h0Z"/>
  <path class="st0" d="M588.1,249.3l-6.2-6.2c-.6-.6-.6-1.6,0-2.2h0c.6-.6,1.6-.6,2.2,0h0l6.2,6.2c.6.6.6,1.6,0,2.2h0c-.3.3-.7.5-1.1.5h0c-.4,0-.8-.2-1.1-.5h0Z"/>
  <path class="st0" d="M87.5,271.2c-.6-.6-.6-1.6,0-2.2h0l6.2-6.2c.6-.6,1.6-.6,2.2,0h0c.6.6.6,1.6,0,2.2h0l-6.2,6.2c-.3.3-.7.5-1.1.5h0c-.4,0-.8-.2-1.1-.5h0Z"/>
  <path class="st0" d="M87.5,271.2l-6.2-6.2c-.6-.6-.6-1.6,0-2.2h0c.6-.6,1.6-.6,2.2,0h0l6.2,6.2c.6.6.6,1.6,0,2.2h0c-.3.3-.7.5-1.1.5h0c-.4,0-.8-.2-1.1-.5h0Z"/>
  <path class="st0" d="M312,80.8c-.6-.6-.6-1.6,0-2.2h0l6.2-6.2c.6-.6,1.6-.6,2.2,0h0c.6.6.6,1.6,0,2.2h0l-6.2,6.2c-.3.3-.7.5-1.1.5h0c-.4-.1-.8-.2-1.1-.5h0Z"/>
  <path class="st0" d="M312,80.8l-6.2-6.2c-.6-.6-.6-1.6,0-2.2h0c.6-.6,1.6-.6,2.2,0h0l6.2,6.2c.6.6.6,1.6,0,2.2h0c-.3.3-.7.5-1.1.5h0c-.4-.1-.8-.2-1.1-.5h0Z"/>
  <path class="st0" d="M312,88.4c-.6-.6-.6-1.6,0-2.2h0l6.2-6.2c.6-.6,1.6-.6,2.2,0h0c.6.6.6,1.6,0,2.2h0l-6.2,6.2c-.3.3-.7.5-1.1.5h0c-.4,0-.8-.2-1.1-.5h0Z"/>
  <path class="st0" d="M312,88.4l-6.2-6.2c-.6-.6-.6-1.6,0-2.2h0c.6-.6,1.6-.6,2.2,0h0l6.2,6.2c.6.6.6,1.6,0,2.2h0c-.3.3-.7.5-1.1.5h0c-.4,0-.8-.2-1.1-.5h0Z"/>
  <path class="st0" d="M46.5,65.9l-6.2-6.2c-.6-.6-.6-1.6,0-2.2h0c.6-.6,1.6-.6,2.2,0h0l6.2,6.2c.6.6.6,1.6,0,2.2h0c-.3.3-.7.5-1.1.5h0c-.4,0-.8-.2-1.1-.5h0Z"/>
  <path class="st0" d="M40.3,59.7c-.6-.6-.6-1.6,0-2.2h0l6.2-6.2c.6-.6,1.6-.6,2.2,0h0c.6.6.6,1.6,0,2.2h0l-6.2,6.2c-.3.3-.7.5-1.1.5h0c-.4,0-.8-.2-1.1-.5h0Z"/>
  <path class="st0" d="M38.9,65.9l-6.2-6.2c-.6-.6-.6-1.6,0-2.2h0c.6-.6,1.6-.6,2.2,0h0l6.2,6.2c.6.6.6,1.6,0,2.2h0c-.3.3-.7.5-1.1.5h0c-.4,0-.8-.2-1.1-.5h0Z"/>
  <path class="st0" d="M32.7,59.7c-.6-.6-.6-1.6,0-2.2h0l6.2-6.2c.6-.6,1.6-.6,2.2,0h0c.6.6.6,1.6,0,2.2h0l-6.2,6.2c-.3.3-.7.5-1.1.5h0c-.4,0-.8-.2-1.1-.5h0Z"/>
  <path class="st0" d="M644.4,49.3c-.6-.6-.6-1.6,0-2.2h0l6.2-6.2c.6-.6,1.6-.6,2.2,0h0c.6.6.6,1.6,0,2.2h0l-6.2,6.2c-.3.3-.7.5-1.1.5h0c-.4,0-.8-.2-1.1-.5h0Z"/>
  <path class="st0" d="M656.8,49.3l-6.2-6.2c-.6-.6-.6-1.6,0-2.2h0c.6-.6,1.6-.6,2.2,0h0l6.2,6.2c.6.6.6,1.6,0,2.2h0c-.3.3-.7.5-1.1.5h0c-.4,0-.8-.2-1.1-.5h0Z"/>
  <path class="st0" d="M644.4,41.7c-.6-.6-.6-1.6,0-2.2h0l6.2-6.2c.6-.6,1.6-.6,2.2,0h0c.6.6.6,1.6,0,2.2h0l-6.2,6.2c-.3.3-.7.5-1.1.5h0c-.4-.1-.8-.2-1.1-.5h0Z"/>
  <path class="st0" d="M656.8,41.7l-6.2-6.2c-.6-.6-.6-1.6,0-2.2h0c.6-.6,1.6-.6,2.2,0h0l6.2,6.2c.6.6.6,1.6,0,2.2h0c-.3.3-.7.5-1.1.5h0c-.4-.1-.8-.2-1.1-.5h0Z"/>
  <path class="st0" d="M628.3,102.4c-.9,0-1.5-.7-1.5-1.5h0c0-.9.7-1.5,1.5-1.5h1.7c.9,0,1.5.7,1.5,1.5h0c0,.9-.7,1.5-1.5,1.5h-1.7Z"/>
  <path class="st0" d="M621.3,102.4c-.9,0-1.5-.7-1.5-1.5h0c0-.9.7-1.5,1.5-1.5h1.7c.9,0,1.5.7,1.5,1.5h0c0,.9-.7,1.5-1.5,1.5h-1.7Z"/>
  <path class="st0" d="M614.2,102.4c-.9,0-1.5-.7-1.5-1.5h0c0-.9.7-1.5,1.5-1.5h1.7c.9,0,1.5.7,1.5,1.5h0c0,.9-.7,1.5-1.5,1.5h-1.7Z"/>
  <path class="st0" d="M430.4,333.7c-.9,0-1.5-.7-1.5-1.5h0c0-.9.7-1.5,1.5-1.5h1.7c.9,0,1.5.7,1.5,1.5h0c0,.9-.7,1.5-1.5,1.5h-1.7Z"/>
  <path class="st0" d="M423.4,333.7c-.9,0-1.5-.7-1.5-1.5h0c0-.9.7-1.5,1.5-1.5h1.7c.9,0,1.5.7,1.5,1.5h0c0,.9-.7,1.5-1.5,1.5h-1.7Z"/>
  <path class="st0" d="M416.4,333.7c-.9,0-1.5-.7-1.5-1.5h0c0-.9.7-1.5,1.5-1.5h1.7c.9,0,1.5.7,1.5,1.5h0c0,.9-.7,1.5-1.5,1.5h-1.7Z"/>
  <path class="st0" d="M15.6,187.5c-.9,0-1.5-.7-1.5-1.5h0c0-.9.7-1.5,1.5-1.5h1.7c.9,0,1.5.7,1.5,1.5h0c0,.9-.7,1.5-1.5,1.5h-1.7Z"/>
  <path class="st0" d="M8.6,187.5c-.9,0-1.5-.7-1.5-1.5h0c0-.9.7-1.5,1.5-1.5h1.7c.9,0,1.5.7,1.5,1.5h0c0,.9-.7,1.5-1.5,1.5h-1.7Z"/>
  <path class="st0" d="M1.5,187.5c-.9,0-1.5-.7-1.5-1.5h0c0-.9.7-1.5,1.5-1.5h1.7c.9,0,1.5.7,1.5,1.5h0c0,.9-.7,1.5-1.5,1.5h-1.7Z"/>
  <path class="st0" d="M658.3,295.7c-.9,0-1.5-.7-1.5-1.5h0c0-.9.7-1.5,1.5-1.5h1.7c.9,0,1.5.7,1.5,1.5h0c0,.9-.7,1.5-1.5,1.5h-1.7Z"/>
  <path class="st0" d="M651.3,295.7c-.9,0-1.5-.7-1.5-1.5h0c0-.9.7-1.5,1.5-1.5h1.7c.9,0,1.5.7,1.5,1.5h0c0,.8-.7,1.5-1.5,1.5h-1.7Z"/>
  <path class="st0" d="M644.3,295.7c-.9,0-1.5-.7-1.5-1.5h0c0-.9.7-1.5,1.5-1.5h1.7c.9,0,1.5.7,1.5,1.5h0c0,.9-.7,1.5-1.5,1.5h-1.7Z"/>
  <path class="st0" d="M136.7,40.4c-.9,0-1.5-.7-1.5-1.5h0c0-.9.7-1.5,1.5-1.5h1.7c.9,0,1.5.7,1.5,1.5h0c0,.9-.7,1.5-1.5,1.5h-1.7Z"/>
  <path class="st0" d="M129.7,40.4c-.9,0-1.5-.7-1.5-1.5h0c0-.9.7-1.5,1.5-1.5h1.7c.9,0,1.5.7,1.5,1.5h0c0,.9-.7,1.5-1.5,1.5h-1.7Z"/>
  <path class="st0" d="M122.7,40.4c-.9,0-1.5-.7-1.5-1.5h0c0-.9.7-1.5,1.5-1.5h1.7c.9,0,1.5.7,1.5,1.5h0c0,.9-.7,1.5-1.5,1.5h-1.7Z"/>
  <path class="st0" d="M328.2,328.9c0-3.2,2.6-5.8,5.8-5.8h0c3.2,0,5.8,2.6,5.8,5.8h0c0,3.2-2.6,5.8-5.8,5.8h0c-3.3,0-5.8-2.6-5.8-5.8h0ZM331.2,328.9c0,1.5,1.2,2.7,2.7,2.7h0c1.5,0,2.7-1.2,2.7-2.7h0c0-1.5-1.2-2.7-2.7-2.7h0c-1.4,0-2.7,1.2-2.7,2.7h0Z"/>
  <path class="st0" d="M665.5,144.9c0-3.2,2.6-5.8,5.8-5.8h0c3.2,0,5.8,2.6,5.8,5.8h0c0,3.2-2.6,5.8-5.8,5.8h0c-3.2,0-5.8-2.6-5.8-5.8h0ZM668.6,144.9c0,1.5,1.2,2.7,2.7,2.7h0c1.5,0,2.7-1.2,2.7-2.7h0c0-1.5-1.2-2.7-2.7-2.7h0c-1.5,0-2.7,1.3-2.7,2.7h0Z"/>
  <path class="st0" d="M420,5.8c0-3.2,2.6-5.8,5.8-5.8h0c3.2,0,5.8,2.6,5.8,5.8h0c0,3.2-2.6,5.8-5.8,5.8h0c-3.2,0-5.8-2.6-5.8-5.8h0ZM423.1,5.8c0,1.5,1.2,2.7,2.7,2.7h0c1.5,0,2.7-1.2,2.7-2.7h0c0-1.5-1.2-2.7-2.7-2.7h0c-1.5,0-2.7,1.2-2.7,2.7h0Z"/>
  <path class="st0" d="M103.7,333.7c-.9,0-1.5-.7-1.5-1.5h0c0-.9.7-1.5,1.5-1.5h1.7c.9,0,1.5.7,1.5,1.5h0c0,.9-.7,1.5-1.5,1.5h-1.7Z"/>
  <path class="st0" d="M96.7,333.7c-.9,0-1.5-.7-1.5-1.5h0c0-.9.7-1.5,1.5-1.5h1.7c.8,0,1.5.7,1.5,1.5h0c0,.9-.7,1.5-1.5,1.5h-1.7Z"/>
  <path class="st0" d="M89.6,333.7c-.9,0-1.5-.7-1.5-1.5h0c0-.9.7-1.5,1.5-1.5h1.7c.9,0,1.5.7,1.5,1.5h0c0,.9-.7,1.5-1.5,1.5h-1.7Z"/>
  <path class="st0" d="M493.8,66.2c-.9,0-1.5-.7-1.5-1.5h0c0-.9.7-1.5,1.5-1.5h8.4c.9,0,1.5.7,1.5,1.5h0c0,.9-.7,1.5-1.5,1.5h-8.4Z"/>
  <path class="st0" d="M493.8,71.4c-.9,0-1.5-.7-1.5-1.5h0c0-.9.7-1.5,1.5-1.5h4.6c.9,0,1.5.7,1.5,1.5h0c0,.9-.7,1.5-1.5,1.5h-4.6Z"/>
  <path class="st0" d="M515.8,72.2c-.9,0-1.5-.7-1.5-1.5h0c0-.9.7-1.5,1.5-1.5h.7c.9,0,1.5.7,1.5,1.5h0c0,.9-.7,1.5-1.5,1.5h-.7Z"/>
  <path class="st0" d="M521,72.2c-.9,0-1.5-.7-1.5-1.5h0c0-.9.7-1.5,1.5-1.5h.7c.9,0,1.5.7,1.5,1.5h0c0,.9-.7,1.5-1.5,1.5h-.7Z"/>
  <path class="st0" d="M488,76.9c-.4,0-.8-.2-1.1-.5h0c-.3-.3-.5-.7-.5-1.1h0v-16.3c0-.4.2-.8.5-1.1h0c.3-.3.7-.5,1.1-.5h39.5c.4,0,.8.2,1.1.5h0c.3.3.5.7.5,1.1h0v16.4c0,.4-.2.8-.5,1.1h0c-.3.3-.7.5-1.1.5h-39.5ZM527.5,75.4v-1.5,1.5h0ZM489.5,73.9h36.5v-13.4h-36.5v13.4h0Z"/>
  <path class="st0" d="M493.8,82.6c-.9,0-1.5-.7-1.5-1.5h0c0-.9.7-1.5,1.5-1.5h8.4c.9,0,1.5.7,1.5,1.5h0c0,.9-.7,1.5-1.5,1.5h-8.4Z"/>
  <path class="st0" d="M493.8,87.8c-.9,0-1.5-.7-1.5-1.5h0c0-.9.7-1.5,1.5-1.5h4.6c.9,0,1.5.7,1.5,1.5h0c0,.9-.7,1.5-1.5,1.5h-4.6Z"/>
  <path class="st0" d="M515.8,88.6c-.9,0-1.5-.7-1.5-1.5h0c0-.9.7-1.5,1.5-1.5h.7c.9,0,1.5.7,1.5,1.5h0c0,.9-.7,1.5-1.5,1.5h-.7Z"/>
  <path class="st0" d="M521,88.6c-.9,0-1.5-.7-1.5-1.5h0c0-.9.7-1.5,1.5-1.5h.7c.9,0,1.5.7,1.5,1.5h0c0,.8-.7,1.5-1.5,1.5h-.7Z"/>
  <path class="st0" d="M488,93.4c-.4,0-.8-.2-1.1-.5h0c-.3-.3-.5-.7-.5-1.1h0v-16.4c0-.4.2-.8.5-1.1h0c.3-.3.7-.5,1.1-.5h39.5c.4,0,.8.2,1.1.5h0c.3.3.5.7.5,1.1h0v16.4c0,.4-.2.8-.5,1.1h0c-.3.3-.7.5-1.1.5h-39.5ZM527.5,91.8v-1.5,1.5h0ZM489.5,90.3h36.5v-13.4h-36.5v13.4h0Z"/>
  <path class="st0" d="M493.8,99.1c-.9,0-1.5-.7-1.5-1.5h0c0-.9.7-1.5,1.5-1.5h8.4c.9,0,1.5.7,1.5,1.5h0c0,.9-.7,1.5-1.5,1.5h-8.4Z"/>
  <path class="st0" d="M493.8,104.3c-.9,0-1.5-.7-1.5-1.5h0c0-.9.7-1.5,1.5-1.5h4.6c.9,0,1.5.7,1.5,1.5h0c0,.9-.7,1.5-1.5,1.5h-4.6Z"/>
  <path class="st0" d="M515.8,105.1c-.9,0-1.5-.7-1.5-1.5h0c0-.9.7-1.5,1.5-1.5h.7c.9,0,1.5.7,1.5,1.5h0c0,.9-.7,1.5-1.5,1.5h-.7Z"/>
  <path class="st0" d="M521,105.1c-.9,0-1.5-.7-1.5-1.5h0c0-.9.7-1.5,1.5-1.5h.7c.9,0,1.5.7,1.5,1.5h0c0,.9-.7,1.5-1.5,1.5h-.7Z"/>
  <path class="st0" d="M488,109.8c-.4,0-.8-.2-1.1-.5h0c-.3-.3-.5-.7-.5-1.1h0v-16.4c0-.4.2-.8.5-1.1h0c.3-.3.7-.5,1.1-.5h39.5c.4,0,.8.2,1.1.5h0c.3.3.5.7.5,1.1h0v16.4c0,.4-.2.8-.5,1.1h0c-.3.3-.7.5-1.1.5h-39.5ZM527.5,108.3v-1.5,1.5h0ZM489.5,106.8h36.5v-13.4h-36.5v13.4h0Z"/>
  <path class="st0" d="M194.4,87.2v-8.4c0-.9.7-1.5,1.5-1.5h0c.9,0,1.5.7,1.5,1.5h0v8.4c0,.9-.7,1.5-1.5,1.5h0c-.8.1-1.5-.6-1.5-1.5h0Z"/>
  <path class="st0" d="M192.8,80.4c-.9,0-1.5-.7-1.5-1.5h0c0-.9.7-1.5,1.5-1.5h6.3c.9,0,1.5.7,1.5,1.5h0c0,.9-.7,1.5-1.5,1.5h-6.3Z"/>
  <path class="st0" d="M215.4,87.2v-8.4c0-.9.7-1.5,1.5-1.5h0c.9,0,1.5.7,1.5,1.5h0v8.4c0,.9-.7,1.5-1.5,1.5h0c-.9.1-1.5-.6-1.5-1.5h0Z"/>
  <path class="st0" d="M216.9,88.8c-.9,0-1.5-.7-1.5-1.5h0c0-.9.7-1.5,1.5-1.5h4.5c.9,0,1.5.7,1.5,1.5h0c0,.9-.7,1.5-1.5,1.5h-4.5Z"/>
  <path class="st0" d="M180.7,87.2v-8.4c0-.9.7-1.5,1.5-1.5h0c.9,0,1.5.7,1.5,1.5h0v8.4c0,.9-.7,1.5-1.5,1.5h0c-.9.1-1.5-.6-1.5-1.5h0Z"/>
  <path class="st0" d="M186.3,87.2v-8.4c0-.9.7-1.5,1.5-1.5h0c.9,0,1.5.7,1.5,1.5h0v8.4c0,.9-.7,1.5-1.5,1.5h0c-.8.1-1.5-.6-1.5-1.5h0Z"/>
  <path class="st0" d="M182.2,84.4c-.9,0-1.5-.7-1.5-1.5h0c0-.9.7-1.5,1.5-1.5h5.6c.9,0,1.5.7,1.5,1.5h0c0,.9-.7,1.5-1.5,1.5h-5.6Z"/>
  <path class="st0" d="M202.4,87.2v-8.4c0-.9.7-1.5,1.5-1.5h0c.9,0,1.5.7,1.5,1.5h0v8.4c0,.9-.7,1.5-1.5,1.5h0c-.8.1-1.5-.6-1.5-1.5h0Z"/>
  <path class="st0" d="M210.4,87.2v-8.4c0-.9.7-1.5,1.5-1.5h0c.9,0,1.5.7,1.5,1.5h0v8.4c0,.9-.7,1.5-1.5,1.5h0c-.8.1-1.5-.6-1.5-1.5h0Z"/>
  <path class="st0" d="M206.9,83.9c-.6-.6-.6-1.6,0-2.2h0l4-4c.6-.6,1.6-.6,2.2,0h0c.6.6.6,1.6,0,2.2h0l-4,4c-.3.3-.7.5-1.1.5h0c-.4,0-.8-.2-1.1-.5h0Z"/>
  <path class="st0" d="M206.9,83.9l-4-4c-.6-.6-.6-1.6,0-2.2h0c.6-.6,1.6-.6,2.2,0h0l4,4c.6.6.6,1.6,0,2.2h0c-.3.3-.7.5-1.1.5h0c-.4,0-.8-.2-1.1-.5h0Z"/>
  <path class="st0" d="M176.1,101.3c-.4,0-.8-.2-1.1-.5h0c-.3-.3-.5-.7-.5-1.1h0v-38.5c0-.4.2-.8.5-1.1h0c.3-.3.7-.5,1.1-.5h51.3c.4,0,.8.2,1.1.5h0c.3.3.5.7.5,1.1h0v38.5c0,.4-.2.8-.5,1.1h0c-.3.3-.7.5-1.1.5h-51.3ZM227.4,99.7v-1.5,1.5h0ZM177.7,98.2h48.2v-35.5h-48.2v35.5h0Z"/>
  <path class="st0" d="M176.1,70.5c-.9,0-1.5-.7-1.5-1.5h0c0-.9.7-1.5,1.5-1.5h51.3c.9,0,1.5.7,1.5,1.5h0c0,.9-.7,1.5-1.5,1.5h-51.3Z"/>
  <path class="st0" d="M503.8,256.2c0-3,2.4-5.4,5.4-5.4h0c3,0,5.4,2.4,5.4,5.4h0c0,3-2.4,5.4-5.4,5.4h0c-3,0-5.4-2.5-5.4-5.4h0ZM506.9,256.2c0,1.3,1,2.3,2.3,2.3h0c1.3,0,2.3-1,2.3-2.3h0c0-1.3-1-2.3-2.3-2.3h0c-1.3-.1-2.3,1-2.3,2.3h0Z"/>
  <path class="st0" d="M529.9,239.7c-4.8-6.2-12.3-10.2-20.7-10.2h0c-8.4,0-15.9,4-20.7,10.2h0c-.5.7-1.5.8-2.2.3h0c-.7-.5-.8-1.5-.3-2.2h0c5.3-6.9,13.7-11.4,23.2-11.4h0c9.4,0,17.8,4.5,23.2,11.4h0c.5.7.4,1.6-.3,2.2h0c-.3.2-.6.3-.9.3h0c-.5,0-1-.2-1.3-.6h0Z"/>
  <path class="st0" d="M524.1,245.5c-3.2-4.7-8.7-7.9-14.8-7.9h0c-6.2,0-11.6,3.1-14.8,7.9h0c-.5.7-1.4.9-2.1.4h0c-.7-.5-.9-1.4-.4-2.1h0c3.8-5.6,10.2-9.2,17.4-9.2h0c7.2,0,13.6,3.6,17.4,9.2h0c.5.7.3,1.7-.4,2.1h0c-.3.2-.6.3-.9.3h0c-.7,0-1.1-.3-1.4-.7h0Z"/>
  <path class="st0" d="M498.1,251.8c-.7-.5-.9-1.4-.4-2.1h0c2.5-3.7,6.7-6.1,11.5-6.1h0c4.8,0,9,2.4,11.5,6.1h0c.5.7.3,1.7-.4,2.1h0c-.7.5-1.7.3-2.1-.4h0c-2-2.9-5.2-4.7-9-4.7h0c-3.7,0-7,1.9-9,4.7h0c-.3.4-.8.7-1.3.7h0c-.2-.1-.5-.2-.8-.3h0Z"/>
  <path class="st0" d="M170.2,259.7c-1.4,0-2.6-1.2-2.6-2.6h0v-2.7c-1-.3-1.9-.7-2.8-1.2h0l-1.9,1.9c-.5.5-1.2.8-1.8.8h0c-.7,0-1.3-.3-1.8-.8h0l-4.2-4.3c-.5-.5-.8-1.2-.8-1.8h0c0-.7.3-1.3.8-1.8h0l1.9-1.9c-.5-.9-.9-1.8-1.2-2.8h-2.8c-1.4,0-2.6-1.2-2.6-2.6h0v-6c0-1.4,1.1-2.6,2.6-2.6h2.7c.3-1,.7-1.9,1.2-2.8h0l-1.9-1.9c-.5-.5-.8-1.2-.8-1.8h0c0-.7.3-1.3.8-1.8h0l4.3-4.3c.5-.5,1.2-.7,1.8-.7h0c.6,0,1.3.2,1.8.8h0l1.9,1.9c.9-.5,1.8-.9,2.8-1.2h0v-2.7c0-1.4,1.2-2.6,2.6-2.6h6c1.4,0,2.6,1.2,2.6,2.6h0v2.7c1,.3,1.9.7,2.8,1.2h0l1.9-1.9c.5-.5,1.2-.8,1.8-.7h0c.6,0,1.3.2,1.8.8h0l4.3,4.3c.5.5.8,1.2.7,1.8h0c0,.7-.2,1.3-.8,1.8h0l-1.9,1.9c.5.9.9,1.8,1.2,2.8h2.7v2.5-2.5c1.4,0,2.6,1.2,2.6,2.6h0v6c0,1.4-1.1,2.6-2.6,2.6h-2.7c-.3,1-.7,1.9-1.2,2.8h0l1.9,1.9c.5.5.7,1.2.7,1.8h0c0,.7-.3,1.3-.8,1.8h0l-4.3,4.3c-.5.5-1.2.8-1.8.8h0c-.7,0-1.3-.3-1.8-.8h0l-1.9-1.9c-.9.5-1.8.9-2.8,1.2h0v2.7c0,1.4-1.2,2.6-2.6,2.6h-5.8v-.2ZM175.7,256.6v-3.3c0-.7.5-1.3,1.2-1.5h0c1.5-.4,2.9-1,4.2-1.7h0c.6-.4,1.4-.3,1.9.2h0l2.4,2.4,3.5-3.5-2.4-2.4c-.5-.5-.6-1.3-.2-1.9h0c.8-1.3,1.4-2.7,1.7-4.2h0c.2-.7.8-1.2,1.5-1.2h3.3v-5h-3.3c-.7,0-1.3-.5-1.5-1.2h0c-.4-1.5-1-2.9-1.7-4.2h0c-.4-.6-.3-1.4.2-1.9h0l2.4-2.4-3.6-3.6-2.4,2.4c-.5.5-1.3.6-1.9.2h0c-1.3-.8-2.7-1.4-4.2-1.7h0c-.7-.2-1.2-.8-1.2-1.5h0v-3.3h-5v3.3c0,.7-.5,1.3-1.2,1.5h0c-1.5.4-2.9,1-4.2,1.7h0c-.6.4-1.4.3-1.9-.2h0l-2.4-2.4-3.5,3.5,2.4,2.4c.5.5.6,1.3.2,1.9h0c-.8,1.3-1.4,2.7-1.7,4.2h0c-.2.7-.8,1.2-1.5,1.2h-3.3v5h3.3c.7,0,1.3.5,1.5,1.2h0c.4,1.5,1,2.9,1.7,4.2h0c.4.6.3,1.4-.2,1.9h0l-2.4,2.4,3.5,3.5,2.4-2.4c.5-.5,1.3-.6,1.9-.2h0c1.3.8,2.7,1.4,4.2,1.7h0c.7.2,1.2.8,1.2,1.5h0v3.3h5.1Z"/>
  <path class="st0" d="M162.5,237c0-5.9,4.8-10.7,10.7-10.7h0c5.9,0,10.7,4.8,10.7,10.7h0c0,5.9-4.8,10.7-10.7,10.7h0c-5.9,0-10.7-4.8-10.7-10.7h0ZM165.5,237c0,4.2,3.4,7.6,7.7,7.7h0c4.2,0,7.6-3.4,7.7-7.7h0c0-4.2-3.4-7.6-7.7-7.7h0c-4.2,0-7.6,3.4-7.7,7.7h0Z"/>
  <path class="st0" d="M275.1,285.8c-2.5,0-4.4-2-4.4-4.4h0v-20.2c0-.9.7-1.5,1.5-1.5h0c.8,0,1.5.7,1.5,1.5h0v20.2c0,.8.6,1.4,1.4,1.4h31.2c.7,0,1.4-.6,1.4-1.4h0v-20.2c0-.8-.6-1.4-1.4-1.4h-17.2c-.9,0-1.5-.7-1.5-1.5h0c0-.9.7-1.5,1.5-1.5h17.2c2.5,0,4.4,2,4.4,4.4h0v20.2c0,2.5-2,4.4-4.4,4.4h-31.2Z"/>
  <path class="st0" d="M270.6,262.5v-8.8c0-1.8,1.5-3.3,3.3-3.3h18.4c1.8,0,3.3,1.5,3.3,3.3h0v4.5c0,.9-.7,1.5-1.5,1.5h0c-.9,0-1.5-.7-1.5-1.5h0v-4.5c0-.1-.1-.2-.2-.2h-18.4c-.1,0-.2.1-.2.2h0v8.8c0,.9-.7,1.5-1.5,1.5h0c-1,.1-1.7-.6-1.7-1.5h0Z"/>
  <path class="st0" d="M289.3,275.2v-7.8c0-.6.5-1.2,1.2-1.2h0c.6,0,1.2.5,1.2,1.2h0v7.8c0,.6-.5,1.2-1.2,1.2h0c-.7,0-1.2-.6-1.2-1.2h0Z"/>
  <path class="st0" d="M287.5,268.6c-.6,0-1.2-.5-1.2-1.2h0c0-.6.5-1.2,1.2-1.2h5.8c.6,0,1.2.5,1.2,1.2h0c0,.6-.5,1.2-1.2,1.2h-5.8Z"/>
  <path class="st0" d="M278.5,275.2v-7.8c0-.6.5-1.2,1.2-1.2h0c.6,0,1.2.5,1.2,1.2h0v7.8c0,.6-.5,1.2-1.2,1.2h0c-.7,0-1.2-.6-1.2-1.2h0Z"/>
  <path class="st0" d="M279.6,268.6c-.6,0-1.2-.5-1.2-1.2h0c0-.6.5-1.2,1.2-1.2h4.1c.6,0,1.2.5,1.2,1.2h0c0,.6-.5,1.2-1.2,1.2h-4.1Z"/>
  <path class="st0" d="M279.6,272.6c-.6,0-1.2-.5-1.2-1.2h0c0-.6.5-1.2,1.2-1.2h2.8c.6,0,1.2.5,1.2,1.2h0c0,.6-.5,1.2-1.2,1.2h-2.8Z"/>
  <path class="st0" d="M296.7,275.2v-7.8c0-.6.5-1.2,1.2-1.2h0c.6,0,1.2.5,1.2,1.2h0v7.8c0,.6-.5,1.2-1.2,1.2h0c-.7,0-1.2-.6-1.2-1.2h0Z"/>
  <path class="st0" d="M296.7,271.3c0-.6.5-1.2,1.2-1.2h1.9c.4,0,.8-.4.8-.8h0c0-.4-.4-.8-.8-.8h-1.9c-.6,0-1.2-.5-1.2-1.2h0c0-.6.5-1.2,1.2-1.2h1.9c1.7,0,3.1,1.4,3.1,3.1h0c0,1.7-1.4,3.1-3.1,3.1h-1.9c-.7.2-1.2-.3-1.2-1h0Z"/>
  <path class="st0" d="M411.5,218.4c-.7-.5-.7-1.5-.2-2.2h0l8.1-9.6c.5-.7,1.5-.7,2.2-.2h0c.7.5.7,1.5.2,2.2h0l-8.1,9.6c-.3.4-.7.6-1.2.6h0c-.3,0-.7-.1-1-.4h0Z"/>
  <path class="st0" d="M455.6,218.2l-8.1-9.6c-.5-.7-.5-1.6.2-2.2h0c.7-.5,1.6-.5,2.2.2h0l8.1,9.6c.5.7.5,1.6-.2,2.2h0c-.3.2-.6.4-1,.4h0c-.5,0-.9-.2-1.2-.6h0Z"/>
  <path class="st0" d="M420.6,209.1c-.9,0-1.5-.7-1.5-1.5h0c0-.9.7-1.5,1.5-1.5h28.1c.9,0,1.5.7,1.5,1.5h0c0,.9-.7,1.5-1.5,1.5h-28.1Z"/>
  <path class="st0" d="M412.5,218.8c-.9,0-1.5-.7-1.5-1.5h0c0-.9.7-1.5,1.5-1.5h44.2c.9,0,1.5.7,1.5,1.5h0c0,.9-.7,1.5-1.5,1.5h-44.2Z"/>
  <path class="st0" d="M412.9,227.4l-1.9-9.9c-.2-.8.4-1.6,1.2-1.8h0c.8-.2,1.6.4,1.8,1.2h0l1.9,9.9c.2.8-.4,1.6-1.2,1.8h-.3c-.7.1-1.3-.5-1.5-1.2h0Z"/>
  <path class="st0" d="M454.5,228.6c-.8-.2-1.4-1-1.2-1.8h0l1.9-9.9c.2-.8,1-1.4,1.8-1.2h0c.8.2,1.4,1,1.2,1.8h0l-1.9,9.9c-.1.7-.8,1.2-1.5,1.2h0c0,0-.2,0-.3,0h0Z"/>
  <path class="st0" d="M414.4,228.7c-.9,0-1.5-.7-1.5-1.5h0c0-.9.7-1.5,1.5-1.5h40.4c.9,0,1.5.7,1.5,1.5h0c0,.9-.7,1.5-1.5,1.5h-40.4Z"/>
  <path class="st0" d="M419.1,223.6c-.9,0-1.5-.7-1.5-1.5h0c0-.9.7-1.5,1.5-1.5h10c.9,0,1.5.7,1.5,1.5h0c0,.9-.7,1.5-1.5,1.5h-10Z"/>
  <path class="st0" d="M450.9,212.1v-18.5c0-.9.7-1.5,1.5-1.5h0c.9,0,1.5.7,1.5,1.5h0v18.5c0,.9-.7,1.5-1.5,1.5h0c-.8,0-1.5-.6-1.5-1.5h0Z"/>
  <path class="st0" d="M145.7,178.5c-.4,0-.8-.2-1.1-.5h0c-.3-.3-.5-.7-.5-1.1h0v-31.9c0-.4.2-.8.5-1.1h0c.3-.3.7-.5,1.1-.5h42.4c.4,0,.8.2,1.1.5h0c.3.3.5.7.5,1.1h0v31.9c0,.4-.2.8-.5,1.1h0c-.3.3-.7.5-1.1.5h-42.4ZM188.1,176.9v-1.5,1.5h0ZM147.3,175.4h39.3v-28.8h-39.3v28.8h0Z"/>
  <path class="st0" d="M142.3,185.4c-.4,0-.8-.2-1.1-.5h0c-.3-.3-.5-.7-.5-1.1h0v-6.9c0-.4.2-.8.5-1.1h0c.3-.3.7-.5,1.1-.5h49.3c.4,0,.8.2,1.1.5h0c.3.3.5.7.5,1.1h0v6.9c0,.4-.2.8-.5,1.1h0c-.3.3-.7.5-1.1.5h-49.3ZM191.6,183.9v-1.5,1.5h0ZM143.8,182.3h46.3v-3.9h-46.3v3.9h0Z"/>
  <path class="st0" d="M166.6,151.5c-.9,0-1.5-.7-1.5-1.5h0c0-.9.7-1.5,1.5-1.5h.8c.9,0,1.5.7,1.5,1.5h0c0,.9-.7,1.5-1.5,1.5h-.8Z"/>
  <path class="st0" d="M152.3,173.5c-.9,0-1.5-.7-1.5-1.5h0c0-.9.7-1.5,1.5-1.5h10c.9,0,1.5.7,1.5,1.5h0c0,.9-.7,1.5-1.5,1.5h-10Z"/>
  <path class="st0" d="M168.1,173.5c-.9,0-1.5-.7-1.5-1.5h0c0-.9.7-1.5,1.5-1.5h1.9c.9,0,1.5.7,1.5,1.5h0c0,.9-.7,1.5-1.5,1.5h-1.9Z"/>
  <path class="st0" d="M176.2,173.5c-.9,0-1.5-.7-1.5-1.5h0c0-.9.7-1.5,1.5-1.5h5.4c.9,0,1.5.7,1.5,1.5h0c0,.9-.7,1.5-1.5,1.5h-5.4Z"/>
  <path class="st0" d="M229,227.7c-.4,0-.8-.2-1.1-.5h0c-.3-.3-.5-.7-.5-1.1h0v-31.9c0-.4.2-.8.5-1.1h0c.3-.3.7-.5,1.1-.5h42.4c.4,0,.8.2,1.1.5h0c.3.3.5.7.5,1.1h0v31.9c0,.4-.2.8-.5,1.1h0c-.3.3-.7.5-1.1.5h-42.4ZM271.4,226.2v-1.5,1.5h0ZM230.5,224.6h39.3v-28.8h-39.3v28.8h0Z"/>
  <path class="st0" d="M249.8,200.4c-.9,0-1.5-.7-1.5-1.5h0c0-.9.7-1.5,1.5-1.5h.8c.9,0,1.5.7,1.5,1.5h0c0,.9-.7,1.5-1.5,1.5h-.8Z"/>
  <path class="st0" d="M242.7,223.1c-.9,0-1.5-.7-1.5-1.5h0c0-.9.7-1.5,1.5-1.5h7.3c.9,0,1.5.7,1.5,1.5h0c0,.9-.7,1.5-1.5,1.5h-7.3Z"/>
  <path class="st0" d="M255.8,223.1c-.9,0-1.5-.7-1.5-1.5h0c0-.9.7-1.5,1.5-1.5h1.9c.9,0,1.5.7,1.5,1.5h0c0,.9-.7,1.5-1.5,1.5h-1.9Z"/>
  <path class="st0" d="M350.4,275.7c-.4,0-.8-.2-1.1-.5h0c-.3-.3-.5-.7-.5-1.1h0v-31.9c0-.4.2-.8.5-1.1h0c.3-.3.7-.5,1.1-.5h42.4c.4,0,.8.2,1.1.5h0c.3.3.5.7.5,1.1h0v31.9c0,.4-.2.8-.5,1.1h0c-.3.3-.7.5-1.1.5h-42.4ZM392.8,274.2v-1.5,1.5h0ZM352,272.7h39.3v-28.8h-39.3v28.8h0Z"/>
  <path class="st0" d="M368.2,285c-.4,0-.8-.2-1.1-.5h0c-.3-.3-.5-.7-.5-1.1h0v-9.3c0-.4.2-.8.5-1.1h0c.3-.3.7-.5,1.1-.5h6.8c.4,0,.8.2,1.1.5h0c.3.3.5.7.5,1.1h0v9.3c0,.4-.2.8-.5,1.1h0c-.3.3-.7.5-1.1.5h-6.8ZM375,283.5v-1.5,1.5h0ZM369.7,281.9h3.7v-6.2h-3.7v6.2h0Z"/>
  <path class="st0" d="M354.6,285c-.9,0-1.5-.7-1.5-1.5h0c0-.9.7-1.5,1.5-1.5h34c.9,0,1.5.7,1.5,1.5h0c0,.9-.7,1.5-1.5,1.5h-34Z"/>
  <path class="st0" d="M371.2,248.4c-.9,0-1.5-.7-1.5-1.5h0c0-.9.7-1.5,1.5-1.5h.8c.9,0,1.5.7,1.5,1.5h0c0,.9-.7,1.5-1.5,1.5h-.8Z"/>
  <path class="st0" d="M357,271.1c-.9,0-1.5-.7-1.5-1.5h0c0-.9.7-1.5,1.5-1.5h10.8c.9,0,1.5.7,1.5,1.5h0c0,.9-.7,1.5-1.5,1.5h-10.8Z"/>
  <path class="st0" d="M372.8,271.1c-.9,0-1.5-.7-1.5-1.5h0c0-.9.7-1.5,1.5-1.5h1.9c.9,0,1.5.7,1.5,1.5h0c0,.9-.7,1.5-1.5,1.5h-1.9Z"/>
  <path class="st0" d="M380.1,271.1c-.9,0-1.5-.7-1.5-1.5h0c0-.9.7-1.5,1.5-1.5h6.2c.9,0,1.5.7,1.5,1.5h0c0,.9-.7,1.5-1.5,1.5h-6.2Z"/>
  <path class="st0" d="M522.7,190.3c-.4,0-.8-.2-1.1-.5h0c-.3-.3-.5-.7-.5-1.1h0v-34.7c0-.4.2-.8.5-1.1h0c.3-.3.7-.5,1.1-.5h26.9c.4,0,.8.2,1.1.5h0c.3.3.5.7.5,1.1h0v34.7c0,.4-.2.8-.5,1.1h0c-.3.3-.7.5-1.1.5h-26.9ZM549.6,188.8v-1.5,1.5h0ZM524.2,187.2h23.8v-31.6h-23.8v31.6h0Z"/>
  <path class="st0" d="M535.6,160.8c-.9,0-1.5-.7-1.5-1.5h0c0-.9.7-1.5,1.5-1.5h1.1c.9,0,1.5.7,1.5,1.5h0c0,.9-.7,1.5-1.5,1.5h-1.1Z"/>
  <path class="st0" d="M533.2,185.1c-.9,0-1.5-.7-1.5-1.5h0c0-.9.7-1.5,1.5-1.5h6c.9,0,1.5.7,1.5,1.5h0c0,.9-.7,1.5-1.5,1.5h-6Z"/>
  <g>
    <path class="st1" d="M445,106.2c-3.4-7.1-10.7-12-19.1-12s-16.4,5.4-19.6,13c-.7,0-1.5-.2-2.2-.2-4.7,0-8.8,2.2-11.4,5.6,1.2.6,2.3,1.3,3.3,2.1,1.9-2.3,4.9-3.8,8.2-3.8s2,0,2.9.4c1,.3,2-.3,2.4-1.3,2.3-7,8.8-12,16.5-12s13.5,4.5,16.1,10.8c.3.8,1.1,1.2,1.9,1.2h.6c6.5,0,11.8,5.3,11.8,11.8s-5.3,11.8-11.8,11.8h-41.9c-.3,1.3-.8,2.6-1.4,3.9h43.3c8.7,0,15.7-7,15.7-15.7,0-8.4-6.9-15.3-15.3-15.6Z"/>
    <path class="st1" d="M312.1,150.2h-2.9c-7.3-.9-12.9-7.1-12.9-14.6h0c0-8.1,6.6-14.7,14.7-14.7h.9c3.1-6.4,9.6-10.9,17.2-10.9h0c1.2,0,2.3,0,3.4.3h0c4.2-10.5,14.4-17.9,26.3-17.9h0c11.4,0,21.2,6.7,25.7,16.4h0c11.3,0,20.5,9.4,20.5,20.7h0c0,11.4-9.3,20.7-20.7,20.7h-72.2ZM309.6,146.3h74.7c9.3,0,16.9-7.6,16.9-16.9h0c0-9.3-7.6-16.8-16.9-16.9h0v-2.3,2.3h-.9c-.8,0-1.6-.4-1.9-1.2h0c-3.7-8.9-12.4-15.2-22.6-15.2h0c-10.9,0-20.1,7.1-23.2,16.9h0c-.3,1-1.4,1.5-2.4,1.3h0c-1.3-.4-2.7-.6-4.2-.6h0c-6.5,0-12,4.1-14.2,9.8h0c-.3.9-1.2,1.4-2.1,1.2h0c-.6,0-1.2-.2-1.8-.2h0c-6,0-10.9,4.9-10.9,10.9h0c0,5.7,4.1,10.2,9.5,10.9h0Z"/>
    <path class="st1" d="M261.7,166c-.9,0-1.5-.7-1.5-1.5h0c0-.9.7-1.5,1.5-1.5h9.3c.9,0,1.5.7,1.5,1.5h0c0,.9-.7,1.5-1.5,1.5h-9.3ZM243.2,166c-.9,0-1.5-.7-1.5-1.5h0c0-.9.7-1.5,1.5-1.5h9.3c.9,0,1.5.7,1.5,1.5h0c0,.9-.7,1.5-1.5,1.5h-9.3ZM224.7,166c-.9,0-1.5-.7-1.5-1.5h0c0-.9.7-1.5,1.5-1.5h9.3c.9,0,1.5.7,1.5,1.5h0c0,.9-.7,1.5-1.5,1.5h-9.3ZM207.8,166c-.9,0-1.5-.7-1.5-1.5h0c0-.9.7-1.5,1.5-1.5h7.7c.9,0,1.5.7,1.5,1.5h0c0,.9-.7,1.5-1.5,1.5h-7.7ZM277.6,163.4v-9.3c0-.9.7-1.5,1.5-1.5h0c.9,0,1.5.7,1.5,1.5h0v9.3c0,.9-.7,1.5-1.5,1.5h0c-.8,0-1.5-.6-1.5-1.5h0ZM277.6,144.9v-9.3c0-.9.7-1.5,1.5-1.5h0c.9,0,1.5.7,1.5,1.5h0v9.3c0,.9-.7,1.5-1.5,1.5h0c-.8,0-1.5-.6-1.5-1.5h0Z"/>
    <path class="st1" d="M498.5,173.7c-.9,0-1.5-.7-1.5-1.5h0c0-.9.7-1.5,1.5-1.5h8.8c.9,0,1.5.7,1.5,1.5h0c0,.9-.7,1.5-1.5,1.5h-8.8ZM480,173.7c-.9,0-1.5-.7-1.5-1.5h0c0-.9.7-1.5,1.5-1.5h9.3c.9,0,1.5.7,1.5,1.5h0c0,.9-.7,1.5-1.5,1.5h-9.3ZM461.5,173.7c-.9,0-1.5-.7-1.5-1.5h0c0-.9.7-1.5,1.5-1.5h9.3c.9,0,1.5.7,1.5,1.5h0c0,.9-.7,1.5-1.5,1.5h-9.3ZM443,173.7c-.9,0-1.5-.7-1.5-1.5h0c0-.9.7-1.5,1.5-1.5h9.3c.9,0,1.5.7,1.5,1.5h0c0,.9-.7,1.5-1.5,1.5h-9.3ZM424.5,173.7c-.9,0-1.5-.7-1.5-1.5h0c0-.9.7-1.5,1.5-1.5h9.3c.9,0,1.5.7,1.5,1.5h0c0,.9-.7,1.5-1.5,1.5h-9.3ZM422.5,163.4v-9.2c0-.9.7-1.5,1.5-1.5h0c.9,0,1.5.7,1.5,1.5h0v9.2c0,.9-.7,1.5-1.5,1.5h0c-.8,0-1.5-.6-1.5-1.5h0ZM422.5,144.9v-9.3c0-.9.7-1.5,1.5-1.5h0c.9,0,1.5.7,1.5,1.5h0v9.3c0,.9-.7,1.5-1.5,1.5h0c-.8,0-1.5-.6-1.5-1.5h0Z"/>
    <path class="st1" d="M326.9,210v-6.2c0-.9.7-1.5,1.5-1.5h0c.9,0,1.5.7,1.5,1.5h0v6.2c0,.9-.7,1.5-1.5,1.5h0c-.8,0-1.5-.7-1.5-1.5h0ZM326.9,194.5v-9.3c0-.9.7-1.5,1.5-1.5h0c.9,0,1.5.7,1.5,1.5h0v9.3c0,.9-.7,1.5-1.5,1.5h0c-.8.1-1.5-.6-1.5-1.5h0ZM326.9,176v-9.3c0-.9.7-1.5,1.5-1.5h0c.9,0,1.5.7,1.5,1.5h0v9.3c0,.9-.7,1.5-1.5,1.5h0c-.8.1-1.5-.6-1.5-1.5h0ZM326.9,157.5v-9.3c0-.9.7-1.5,1.5-1.5h0c.9,0,1.5.7,1.5,1.5h0v9.3c0,.9-.7,1.5-1.5,1.5h0c-.8.1-1.5-.6-1.5-1.5h0Z"/>
    <path class="st1" d="M319.2,211.5c-.9,0-1.5-.7-1.5-1.5h0c0-.9.7-1.5,1.5-1.5h9.3c.9,0,1.5.7,1.5,1.5h0c0,.9-.7,1.5-1.5,1.5h-9.3ZM300.7,211.5c-.9,0-1.5-.7-1.5-1.5h0c0-.9.7-1.5,1.5-1.5h9.3c.9,0,1.5.7,1.5,1.5h0c0,.9-.7,1.5-1.5,1.5h-9.3ZM287.6,211.5c-.9,0-1.5-.7-1.5-1.5h0c0-.9.7-1.5,1.5-1.5h3.9c.9,0,1.5.7,1.5,1.5h0c0,.9-.7,1.5-1.5,1.5h-3.9Z"/>
    <path class="st1" d="M370.1,228.5v-6.2c0-.9.7-1.5,1.5-1.5h0c.9,0,1.5.7,1.5,1.5h0v6.2c0,.9-.7,1.5-1.5,1.5h0c-.8,0-1.5-.7-1.5-1.5h0ZM370.1,213v-9.3c0-.9.7-1.5,1.5-1.5h0c.9,0,1.5.7,1.5,1.5h0v9.3c0,.8-.7,1.5-1.5,1.5h0c-.8.1-1.5-.6-1.5-1.5h0ZM370.1,194.5v-9.3c0-.9.7-1.5,1.5-1.5h0c.9,0,1.5.7,1.5,1.5h0v9.3c0,.9-.7,1.5-1.5,1.5h0c-.8.1-1.5-.6-1.5-1.5h0ZM370.1,176v-9.3c0-.9.7-1.5,1.5-1.5h0c.9,0,1.5.7,1.5,1.5h0v9.3c0,.9-.7,1.5-1.5,1.5h0c-.8.1-1.5-.6-1.5-1.5h0ZM370.1,157.5v-9.2c0-.9.7-1.5,1.5-1.5h0c.9,0,1.5.7,1.5,1.5h0v9.2c0,.9-.7,1.5-1.5,1.5h0c-.8.1-1.5-.6-1.5-1.5h0Z"/>
    <path class="st1" d="M298.2,135.5c0-.6.1-1.2.1-1.8h-44.3c-3.7-.5-6.5-3.6-6.5-7.4s3.3-7.4,7.4-7.4.8,0,1.3,0c.9,0,1.8-.4,2.1-1.2,1.5-4,5.4-6.8,9.9-6.8s2,0,2.9.4c1,.3,2-.3,2.4-1.3,2.3-7,8.8-12,16.5-12s13.5,4.5,16.1,10.8c.3.8,1.1,1.2,1.9,1.2h.6c4.2,0,7.8,2.2,9.9,5.5,1-.8,2.1-1.5,3.3-2-2.7-4.2-7.4-7.1-12.7-7.3-3.4-7.1-10.7-12-19.1-12s-16.4,5.4-19.6,13c-.7,0-1.5-.2-2.2-.2-5.6,0-10.5,3.2-12.9,7.9h-.4c-6.2,0-11.3,5.1-11.3,11.3s4.3,10.5,9.9,11.2h44.8c0-.6,0-1.3,0-2Z"/>
  </g>
</svg>